<?xml version="1.0" standalone="no"?>
<!DOCTYPE svg PUBLIC "-//W3C//DTD SVG 20010904//EN"
 "http://www.w3.org/TR/2001/REC-SVG-20010904/DTD/svg10.dtd">
<svg version="1.0" xmlns="http://www.w3.org/2000/svg"
 width="512.000000pt" height="512.000000pt" viewBox="0 0 512.000000 512.000000"
 preserveAspectRatio="xMidYMid meet">
<metadata>
Created by potrace 1.14, written by Peter Selinger 2001-2017
</metadata>
<g transform="translate(0.000000,512.000000) scale(0.100000,-0.100000)"
fill="#000000" stroke="none">
<path d="M0 2560 l0 -2560 2560 0 2560 0 0 2560 0 2560 -740 0 -740 0 0 -45
c0 -31 5 -47 15 -51 8 -4 15 -14 14 -23 0 -10 -2 -11 -6 -3 -9 23 -23 12 -23
-18 0 -20 5 -30 15 -30 10 0 15 -10 15 -30 0 -18 -6 -33 -15 -36 -8 -4 -15
-12 -15 -20 0 -8 -10 -4 -27 12 -14 13 -24 27 -21 29 3 3 11 -1 18 -10 9 -11
17 -12 31 -4 23 12 26 44 4 35 -12 -4 -15 4 -15 39 0 67 -26 58 -42 -15 -7
-33 -7 -33 -4 8 3 26 12 50 23 60 10 9 18 24 17 32 0 8 -2 27 -2 43 l-2 27
-1810 0 -1810 0 0 -2560z m4035 2340 c3 -6 -1 -7 -9 -4 -18 7 -21 14 -7 14 6
0 13 -4 16 -10z m77 -62 c2 -21 0 -38 -4 -38 -4 0 -7 24 -7 53 1 54 5 49 11
-15z m-40 3 c2 -22 0 -37 -4 -35 -8 5 -11 74 -4 74 2 0 6 -18 8 -39z m-45 -13
c-3 -8 -6 -5 -6 6 -1 11 2 17 5 13 3 -3 4 -12 1 -19z m-384 -88 c-2 -2 -8 2
-13 10 -8 12 -10 12 -16 -3 -8 -22 3 -50 16 -42 5 3 10 -1 10 -10 0 -9 -4 -14
-9 -11 -5 3 -11 -8 -13 -24 -5 -30 9 -36 39 -17 9 6 11 3 7 -7 -4 -10 -19 -16
-40 -16 -19 0 -34 1 -34 3 0 1 4 17 9 35 8 27 7 32 -7 33 -11 0 -12 2 -4 6 6
2 12 15 12 28 0 32 10 56 21 49 5 -3 10 12 10 33 2 35 2 35 9 -12 4 -27 5 -52
3 -55z m484 -42 c-2 -13 -4 -5 -4 17 -1 22 1 32 4 23 2 -10 2 -28 0 -40z m-35
-78 c2 -49 -1 -80 -7 -80 -6 0 -10 33 -10 80 0 44 3 80 7 80 3 0 8 -36 10 -80z
m-29 30 c-3 -12 -8 -19 -11 -16 -5 6 5 36 12 36 2 0 2 -9 -1 -20z m-19 -41
c-3 -6 0 -15 7 -20 11 -7 10 -9 -3 -9 -18 0 -24 20 -11 33 10 11 15 8 7 -4z
m-386 -101 c7 -7 12 -21 11 -32 0 -20 -1 -20 -9 2 -6 12 -18 22 -30 22 -18 0
-20 -6 -20 -61 0 -52 2 -60 17 -57 10 2 23 14 30 28 11 22 13 23 13 5 0 -28
-19 -45 -50 -45 -25 0 -25 1 -25 75 0 74 0 75 26 75 14 0 30 -5 37 -12z m382
-88 c0 -5 -2 -10 -4 -10 -3 0 -8 5 -11 10 -3 6 -1 10 4 10 6 0 11 -4 11 -10z
m-3 -62 c-3 -7 -5 -2 -5 12 0 14 2 19 5 13 2 -7 2 -19 0 -25z m96 17 c-3 -9
-8 -14 -10 -11 -3 3 -2 9 2 15 9 16 15 13 8 -4z m84 -37 c-3 -8 -6 -5 -6 6 -1
11 2 17 5 13 3 -3 4 -12 1 -19z m-175 -28 c3 -19 0 -30 -7 -30 -7 0 -10 11 -7
30 2 17 5 30 7 30 2 0 5 -13 7 -30z m65 8 c-3 -8 -6 -5 -6 6 -1 11 2 17 5 13
3 -3 4 -12 1 -19z m27 -44 c3 -8 2 -12 -4 -9 -6 3 -10 10 -10 16 0 14 7 11 14
-7z m-509 -26 c-9 -44 -25 -60 -25 -26 0 33 9 58 22 58 6 0 7 -13 3 -32z m565
12 c0 -5 -5 -10 -11 -10 -5 0 -7 5 -4 10 3 6 8 10 11 10 2 0 4 -4 4 -10z
m-623 -417 c-1 -43 -3 -10 -3 72 0 83 2 118 3 78 2 -40 2 -107 0 -150z m84
125 c0 -29 2 -65 3 -80 1 -22 -3 -28 -18 -28 -16 0 -17 3 -8 12 19 19 14 28
-13 28 -14 0 -25 4 -25 9 0 18 43 111 51 111 5 0 9 -24 10 -52z m396 14 c-22
-24 -22 -95 -2 -112 9 -7 13 -15 10 -18 -12 -12 -34 35 -35 72 0 34 21 76 38
76 3 0 -2 -8 -11 -18z m-2601 -101 c0 -11 -4 -17 -8 -15 -4 3 -8 12 -8 20 0 8
4 14 8 14 4 0 8 -9 8 -19z m2644 -31 c-8 -5 -17 -7 -19 -4 -3 3 1 9 9 14 8 5
17 7 19 4 3 -3 -1 -9 -9 -14z m-2647 -15 c-3 -9 -8 -14 -10 -11 -3 3 -2 9 2
15 9 16 15 13 8 -4z m196 -87 c11 -30 7 -54 -10 -50 -9 2 -10 0 -2 -10 7 -9 7
-21 1 -38 -10 -24 -10 -24 -18 -5 -10 24 -13 109 -3 118 12 13 24 7 32 -15z
m1961 -7 c0 -24 3 -28 20 -24 29 8 50 -14 50 -52 0 -37 -28 -69 -49 -55 -8 4
-19 6 -25 4 -7 -3 -11 22 -11 76 0 44 3 80 8 80 4 0 7 -13 7 -29z m454 -9 c-6
-4 -14 -14 -17 -22 -4 -10 -6 -8 -6 7 -1 12 5 23 12 26 16 6 24 -2 11 -11z
m33 -19 c-2 -5 -13 -29 -25 -55 -12 -25 -26 -49 -31 -52 -5 -4 4 21 21 54 16
33 32 60 34 60 3 0 3 -3 1 -7z m-2630 -45 c-3 -8 -6 -5 -6 6 -1 11 2 17 5 13
3 -3 4 -12 1 -19z m2640 -60 c-3 -7 -5 -2 -5 12 0 14 2 19 5 13 2 -7 2 -19 0
-25z m-487 -121 c0 -13 3 -27 7 -30 10 -11 33 13 33 34 0 11 5 19 10 19 14 0
13 -5 -10 -50 -23 -44 -26 -86 -7 -93 6 -3 -1 -5 -18 -5 -16 0 -24 2 -17 5 19
7 14 64 -8 101 -24 39 -24 42 -5 42 9 0 15 -9 15 -23z m-2157 -41 c6 -15 -1
-26 -15 -26 -4 0 -8 9 -8 20 0 23 15 27 23 6z m2724 -28 c-3 -8 -6 -5 -6 6 -1
11 2 17 5 13 3 -3 4 -12 1 -19z m-121 -84 c-4 -20 -10 -34 -13 -30 -3 3 -2 21
1 42 4 20 10 34 13 30 3 -3 2 -21 -1 -42z m-2441 -24 c3 -11 10 -20 15 -20 8
0 23 -39 21 -54 -1 -4 3 -14 8 -20 7 -9 6 -19 -5 -35 -13 -17 -19 -20 -30 -10
-8 6 -14 22 -14 34 0 13 -7 36 -15 51 -16 31 -19 57 -8 67 12 12 22 7 28 -13z
m2362 -32 c-3 -8 -6 -5 -6 6 -1 11 2 17 5 13 3 -3 4 -12 1 -19z m-339 -52 c-2
-12 -12 -22 -23 -24 -18 -2 -18 -2 -2 8 9 6 17 18 17 25 0 21 -30 18 -31 -2 0
-12 -2 -13 -6 -5 -3 7 1 19 7 27 17 20 42 0 38 -29z m-2173 -51 c1 -22 5 -59
9 -81 4 -25 3 -44 -2 -48 -32 -19 -70 155 -42 190 12 14 15 13 24 -3 6 -10 11
-36 11 -58z m2637 -38 c2 -31 0 -57 -4 -57 -5 0 -7 37 -7 83 2 85 6 75 11 -26z
m-443 59 c-15 -13 -69 -35 -69 -27 0 5 12 14 28 19 28 11 48 15 41 8z m-1 -70
c-2 -13 -10 -21 -23 -21 -23 0 -32 30 -14 51 16 19 41 -1 37 -30z m369 -8 c-2
-13 -4 -5 -4 17 -1 22 1 32 4 23 2 -10 2 -28 0 -40z m-349 -120 c-1 -113 -3
-129 -8 -78 l-7 65 -1 -56 c-2 -60 -17 -83 -49 -77 -13 2 -18 13 -20 38 -1 23
1 27 4 10 12 -60 41 -49 47 18 3 34 0 47 -17 62 l-21 20 32 0 32 0 0 70 c0 39
2 70 5 70 3 0 4 -64 3 -142z m402 92 c0 -5 -5 -10 -11 -10 -5 0 -7 5 -4 10 3
6 8 10 11 10 2 0 4 -4 4 -10z m-2443 -47 c-3 -3 -11 -2 -17 2 -9 6 -9 10 1 16
14 8 27 -7 16 -18z m17 -85 c-3 -4 -11 -5 -19 -1 -21 7 -19 12 4 10 11 0 18
-5 15 -9z m2007 -386 c-5 -52 -13 -30 -12 37 0 59 -1 61 -26 61 -24 0 -25 -3
-20 -35 4 -24 2 -35 -6 -35 -9 0 -11 22 -9 75 2 41 7 75 12 75 5 0 6 -16 3
-35 -5 -33 -4 -35 21 -35 25 0 27 3 25 33 -1 17 0 57 2 87 2 34 5 7 9 -70 3
-69 3 -140 1 -158z m-2189 144 c7 -84 1 -116 -23 -116 -18 0 -26 23 -19 55 1
5 2 35 3 67 1 47 5 58 18 58 13 0 17 -13 21 -64z m165 9 c0 -8 -4 -12 -9 -9
-5 3 -6 10 -3 15 9 13 12 11 12 -6z m2413 -52 c0 -18 10 -16 27 5 12 15 12 14
2 -10 -10 -22 -8 -32 11 -62 l22 -36 -24 0 c-18 0 -20 2 -9 9 11 7 12 13 4 23
-14 18 -63 107 -63 115 0 12 29 -32 30 -44z m-2411 -111 c1 -73 -5 -102 -20
-102 -5 0 -8 3 -8 8 1 4 1 9 0 12 -4 14 -7 137 -4 147 3 6 11 9 18 7 9 -4 13
-26 14 -72z m2402 40 c-8 -15 -8 -22 2 -25 6 -3 2 -6 -10 -6 -22 -1 -22 0 -5
28 18 33 30 35 13 3z m-2572 -134 c12 -36 15 -81 8 -113 -4 -22 -33 -33 -35
-13 -1 7 -5 31 -10 53 -8 40 4 105 19 105 4 0 12 -15 18 -32z m2581 -62 c0 -2
-8 -10 -17 -17 -16 -13 -17 -12 -4 4 13 16 21 21 21 13z m-2412 -90 c-2 -31
-7 -57 -12 -59 -13 -3 -27 51 -15 59 5 3 6 16 3 29 -7 28 4 51 18 37 5 -5 8
-35 6 -66z m1989 -218 c-1 -51 -3 -12 -3 87 0 99 2 141 3 93 2 -48 2 -129 0
-180z m-2161 75 c11 -27 11 -37 0 -51 -8 -11 -11 -10 -17 5 -18 45 -2 88 17
46z m3524 -33 c0 -5 -2 -10 -4 -10 -3 0 -8 5 -11 10 -3 6 -1 10 4 10 6 0 11
-4 11 -10z m-993 -212 c-1 -40 -3 -10 -3 67 0 77 1 110 3 73 2 -37 2 -100 0
-140z m978 162 c3 -6 -4 -10 -17 -10 -18 0 -20 2 -8 10 19 12 18 12 25 0z
m-3510 -30 c3 -5 1 -10 -4 -10 -6 0 -11 5 -11 10 0 6 2 10 4 10 3 0 8 -4 11
-10z m2862 -82 c-2 -13 -4 -3 -4 22 0 25 2 35 4 23 2 -13 2 -33 0 -45z m693
36 c0 -12 -7 -27 -15 -34 -17 -14 -20 -56 -5 -65 6 -3 11 6 12 22 0 15 4 6 7
-22 4 -27 5 -53 3 -57 -2 -5 -23 -8 -47 -8 -51 0 -52 3 -47 118 l4 73 44 -2
c38 -2 44 -6 44 -25z m-3547 9 c3 -5 -1 -13 -8 -20 -10 -10 -14 -9 -18 1 -8
21 15 37 26 19z m2224 -290 c-2 -37 -3 -9 -3 62 0 72 1 102 3 68 2 -34 2 -93
0 -130z m-140 0 c-2 -32 -3 -6 -3 57 0 63 1 89 3 58 2 -32 2 -84 0 -115z
m1253 163 c0 -2 -8 -10 -17 -17 -16 -13 -17 -12 -4 4 13 16 21 21 21 13z
m-3179 -109 c-13 -13 -20 5 -13 38 l5 30 8 -30 c5 -16 5 -33 0 -38z m3080 -82
c-1 -52 0 -95 3 -95 3 0 14 17 25 38 13 27 16 44 10 62 -8 22 -7 23 4 8 12
-16 15 -14 30 18 21 44 21 51 0 57 -10 3 -3 5 15 6 l32 1 0 -121 0 -122 -37 7
c-21 3 -50 6 -65 6 l-28 0 0 122 c0 67 3 119 6 115 4 -3 6 -49 5 -102z m-3247
68 c4 -9 3 -19 -2 -22 -17 -11 -19 -36 -3 -47 13 -10 13 -16 2 -40 l-13 -29
-13 25 c-9 16 -10 32 -4 48 5 13 7 28 3 33 -7 12 5 49 16 49 4 0 11 -8 14 -17z
m3542 -50 c-4 -4 -11 -1 -16 6 -9 15 -40 8 -40 -9 0 -6 11 -16 25 -22 31 -14
44 -56 23 -72 -9 -6 -18 -20 -20 -31 -5 -20 -5 -20 -13 0 -5 11 -16 25 -24 32
-9 6 -13 15 -9 19 4 4 14 2 21 -5 17 -13 47 -5 47 14 0 7 -13 18 -30 25 -34
14 -40 43 -13 72 16 18 17 18 37 -1 11 -11 17 -24 12 -28z m-3379 -65 c-3 -8
-6 -5 -6 6 -1 11 2 17 5 13 3 -3 4 -12 1 -19z m3357 -169 c19 -9 27 -22 32
-56 9 -64 -6 -93 -50 -93 -32 0 -34 2 -38 40 -6 63 2 120 18 120 7 0 24 -5 38
-11z m-154 -160 l0 -119 -27 0 c-16 0 -45 3 -65 6 l-38 7 0 116 0 116 65 -3
65 -4 0 -119z m-3190 -235 c0 -8 -4 -12 -10 -9 -5 3 -10 13 -10 21 0 8 5 12
10 9 6 -3 10 -13 10 -21z m3131 -27 c-13 -12 -20 -15 -16 -7 14 26 28 41 33
35 3 -3 -5 -16 -17 -28z m182 16 c-7 -2 -19 -2 -25 0 -7 3 -2 5 12 5 14 0 19
-2 13 -5z m-223 -118 c0 -51 4 -66 18 -74 32 -17 52 10 51 70 0 39 -3 49 -9
34 -8 -18 -9 -17 -9 7 -1 20 3 26 14 22 11 -5 15 -23 15 -75 0 -46 4 -69 12
-69 6 0 8 -3 5 -6 -4 -4 -13 -1 -22 6 -16 13 -17 11 -18 -30 0 -19 -1 -20 -4
-5 -2 11 -17 28 -33 37 -28 16 -30 21 -30 77 0 38 -4 61 -12 64 -8 3 -6 6 5 6
14 1 17 -8 17 -64z m197 -2 c-3 -10 -5 -2 -5 17 0 19 2 27 5 18 2 -10 2 -26 0
-35z m-140 -40 c-3 -10 -5 -2 -5 17 0 19 2 27 5 18 2 -10 2 -26 0 -35z m174
-1 c-13 -2 -27 0 -32 5 -6 6 3 7 23 4 28 -4 29 -6 9 -9z m-3493 -57 c-2 -23
-25 -42 -36 -30 -3 3 1 5 9 5 10 1 9 3 -3 11 -16 9 -16 11 -1 29 20 23 33 17
31 -15z m172 11 c0 -8 -6 -16 -14 -19 -10 -4 -12 0 -9 14 6 22 23 26 23 5z
m3346 -43 c-7 -7 -26 7 -26 19 0 6 6 6 15 -2 9 -7 13 -15 11 -17z m-3539 -45
c-3 -7 -5 -2 -5 12 0 14 2 19 5 13 2 -7 2 -19 0 -25z m3553 16 c0 -3 -6 -11
-12 -18 -10 -9 -17 -8 -30 6 -17 17 -17 18 12 18 17 0 30 -3 30 -6z m-7 -146
c17 -11 -12 -9 -38 2 -17 7 -17 9 -2 9 13 1 17 11 19 49 l2 47 3 -50 c3 -27
10 -53 16 -57z m-4757 -3 c-1 -8 -5 -17 -8 -21 -5 -4 -4 16 1 34 3 9 9 -1 7
-13z m4553 -7 c12 -32 4 -45 -25 -45 -21 0 -23 2 -12 15 10 12 10 14 1 8 -9
-5 -13 -1 -13 13 0 17 11 28 33 30 4 1 11 -9 16 -21z m-42 -165 c-2 -21 -4 -4
-4 37 0 41 2 58 4 38 2 -21 2 -55 0 -75z m237 55 c8 -12 13 -25 10 -30 -3 -5
0 -22 6 -38 14 -34 6 -80 -14 -80 -8 0 -17 7 -20 16 -5 13 -4 14 7 6 8 -7 17
-9 20 -5 14 14 6 52 -13 66 -18 12 -18 16 -6 26 20 17 8 44 -15 38 -19 -5 -25
4 -12 16 11 12 21 8 37 -15z m-34 -138 c0 -5 -7 -7 -15 -4 -8 4 -15 8 -15 10
0 2 7 4 15 4 8 0 15 -4 15 -10z m30 -125 c-7 -9 -15 -13 -18 -10 -3 2 1 11 8
20 7 9 15 13 18 10 3 -2 -1 -11 -8 -20z m20 -45 c0 -5 -2 -10 -4 -10 -3 0 -8
5 -11 10 -3 6 -1 10 4 10 6 0 11 -4 11 -10z m-227 -47 c-7 -2 -19 -2 -25 0 -7
3 -2 5 12 5 14 0 19 -2 13 -5z m210 -36 c18 8 24 8 24 -1 0 -19 -59 -15 -64 4
-4 13 -3 13 6 1 7 -12 15 -13 34 -4z"/>
<path d="M3619 3958 c-7 -18 -14 -36 -17 -40 -2 -5 6 -8 17 -8 18 0 21 6 21
40 0 22 -2 40 -4 40 -2 0 -10 -15 -17 -32z"/>
<path d="M3612 3698 c-25 -25 -8 -78 25 -78 17 0 29 49 16 68 -13 21 -26 25
-41 10z"/>
<path d="M1437 3166 c-4 -10 -5 -21 -2 -24 9 -9 17 6 13 25 -3 17 -4 17 -11
-1z"/>
<path d="M3622 3134 c4 -21 22 -23 26 -1 2 10 -3 17 -13 17 -10 0 -15 -6 -13
-16z"/>
<path d="M4946 2004 c-3 -9 -6 -37 -6 -62 1 -39 3 -44 11 -28 6 10 9 34 6 53
-5 31 -5 33 7 18 15 -21 31 -14 39 15 4 17 0 20 -23 20 -16 0 -30 -7 -34 -16z"/>
<path d="M4962 1900 c-17 -27 -16 -30 14 -30 20 0 25 4 20 16 -3 9 -6 20 -6
25 0 16 -15 10 -28 -11z"/>
<path d="M4787 1724 c-17 -34 -17 -38 0 -75 9 -21 20 -39 25 -39 4 0 8 34 8
75 0 41 -3 75 -7 75 -5 0 -16 -17 -26 -36z"/>
<path d="M4741 1632 c-11 -23 -21 -44 -21 -47 0 -3 18 -5 40 -5 46 0 47 3 21
55 l-19 39 -21 -42z"/>
<path d="M4945 1459 c-5 -16 -2 -26 11 -36 17 -12 17 -13 0 -13 -13 0 -17 -7
-14 -27 2 -22 8 -28 28 -28 19 0 26 7 33 31 17 58 -41 129 -58 73z"/>
<path d="M4716 1425 c-8 -23 -7 -167 2 -181 9 -15 82 -23 82 -9 -1 5 -9 26
-19 45 l-19 34 -22 -34 c-21 -34 -21 -28 3 32 9 22 8 35 -6 63 -24 50 -20 58
5 11 l21 -40 19 38 c11 21 17 40 15 42 -3 3 -20 7 -39 10 -27 5 -37 2 -42 -11z"/>
<path d="M4787 1365 c-15 -32 -15 -37 3 -77 11 -24 20 -41 20 -38 4 45 4 150
0 150 -4 0 -14 -16 -23 -35z"/>
</g>
</svg>
